# xmcd
#
# Track frame offsets:
#	150
#	37343
#	51313
#	94030
#	129670
#	152600
#	177413
#	200138
#	228345
#	256640
#	278895
#	313720
#
# Disc length: 4569 seconds
#
# Revision: 2
# Processed by: cddbd v1.5.1PL0 Copyright (c) Steve Scherf et al.
# Submitted via: audiograbber 1.83.01
#
DISCID=ab11d70c
DTITLE=Luther Allison - Let's Try It Again Live 89
DYEAR=1989
DGENRE=Blues
TTITLE0=Serious
TTITLE1=Backtrack
TTITLE2=Let's Try It Again
TTITLE3=Freedom
TTITLE4=Life Is A Bitch
TTITLE5=Just Memories
TTITLE6=Fight
TTITLE7=Bad News Is Coming
TTITLE8=Just My Guitar (And Me)
TTITLE9=Now You Got It
TTITLE10=Let s Have A Little Talk
TTITLE11=The Dock Of The Bay
EXTD=featuring Bernard Allison
EXTT0=
EXTT1=
EXTT2=
EXTT3=
EXTT4=
EXTT5=
EXTT6=
EXTT7=
EXTT8=
EXTT9=
EXTT10=
EXTT11=
PLAYORDER=
